<?xml version="1.0" standalone="no"?>
<!DOCTYPE svg PUBLIC "-//W3C//DTD SVG 20010904//EN"
 "http://www.w3.org/TR/2001/REC-SVG-20010904/DTD/svg10.dtd">
<svg version="1.0" xmlns="http://www.w3.org/2000/svg"
 width="668.000000pt" height="668.000000pt" viewBox="0 0 668.000000 668.000000"
 preserveAspectRatio="xMidYMid meet">
<metadata>
Created by potrace 1.14, written by Peter Selinger 2001-2017
</metadata>
<g transform="translate(0.000000,668.000000) scale(0.100000,-0.100000)"
fill="#000000" stroke="none">
<path d="M3753 4975 c0 -8 4 -12 9 -9 5 3 6 10 3 15 -9 13 -12 11 -12 -6z"/>
<path d="M3550 4940 c0 -5 5 -10 11 -10 5 0 7 5 4 10 -3 6 -8 10 -11 10 -2 0
-4 -4 -4 -10z"/>
<path d="M3260 4926 c0 -2 8 -10 18 -17 15 -13 16 -12 3 4 -13 16 -21 21 -21
13z"/>
<path d="M4365 4920 c-3 -6 1 -7 9 -4 18 7 21 14 7 14 -6 0 -13 -4 -16 -10z"/>
<path d="M3550 4906 c0 -2 7 -7 16 -10 8 -3 12 -2 9 4 -6 10 -25 14 -25 6z"/>
<path d="M3773 4890 c-1 -11 2 -22 6 -24 4 -3 7 4 6 14 -2 27 -10 33 -12 10z"/>
<path d="M3366 4881 c-20 -22 -3 -42 17 -22 9 9 7 10 -8 5 -20 -7 -20 -7 -1
14 11 12 17 22 14 22 -3 0 -13 -9 -22 -19z"/>
<path d="M3413 4885 c0 -8 4 -15 9 -15 4 0 8 4 8 9 0 6 -4 12 -8 15 -5 3 -9
-1 -9 -9z"/>
<path d="M3495 4891 c-3 -5 -2 -12 3 -15 5 -3 9 1 9 9 0 17 -3 19 -12 6z"/>
<path d="M3258 4872 c-12 -15 -11 -16 5 -3 12 10 20 11 30 2 10 -8 14 -7 14 2
0 19 -34 18 -49 -1z"/>
<path d="M3534 4874 c1 -8 4 -15 7 -16 2 -2 3 -1 2 1 -2 2 2 9 7 16 7 8 5 12
-4 12 -8 0 -13 -6 -12 -13z"/>
<path d="M3633 4875 c0 -8 6 -16 14 -19 11 -4 11 -1 3 14 -13 24 -17 25 -17 5z"/>
<path d="M3719 4883 c0 -5 -2 -16 -4 -26 -2 -11 -1 -16 3 -13 8 8 14 46 7 46
-3 0 -5 -3 -6 -7z"/>
<path d="M2535 4871 c-3 -5 -2 -12 3 -15 5 -3 9 1 9 9 0 17 -3 19 -12 6z"/>
<path d="M2695 4860 c-3 -5 -1 -10 4 -10 6 0 11 5 11 10 0 6 -2 10 -4 10 -3 0
-8 -4 -11 -10z"/>
<path d="M2819 4868 c-7 -23 -4 -35 7 -35 9 0 11 4 4 12 -5 7 -7 15 -3 18 3 4
3 7 0 7 -4 0 -7 -1 -8 -2z"/>
<path d="M3435 4860 c-13 -6 -15 -9 -5 -9 13 -1 13 -3 0 -10 -17 -11 -33 -4
-24 10 3 6 -3 5 -15 -3 -17 -11 -25 -11 -42 0 -12 8 -18 9 -14 3 3 -6 3 -11
-2 -12 -51 -5 -73 -4 -73 5 0 7 -3 8 -8 1 -11 -15 -65 -16 -74 -2 -6 9 -8 9
-8 0 0 -9 -15 -13 -42 -13 -30 0 -51 -7 -68 -23 -14 -12 -21 -19 -16 -14 18
14 28 7 15 -10 -12 -14 -12 -16 0 -8 11 6 13 2 8 -24 -5 -23 -3 -30 5 -25 7 5
8 3 4 -5 -5 -7 -14 -10 -21 -7 -7 2 -16 2 -20 -2 -13 -13 -87 -9 -92 5 -9 22
3 25 23 6 17 -17 18 -17 11 0 -5 13 -3 17 5 14 7 -2 12 -10 10 -16 -1 -6 2
-11 8 -11 5 0 10 6 10 13 0 9 2 9 8 1 5 -8 11 -7 22 4 13 14 12 15 -4 9 -12
-5 -16 -3 -13 5 2 7 13 12 23 10 18 -2 18 -2 0 9 -14 9 -20 8 -27 -2 -5 -8 -9
-9 -9 -3 0 6 -12 16 -26 23 -23 10 -26 9 -31 -9 -3 -11 -9 -20 -14 -20 -16 0
-10 32 9 46 16 13 16 14 0 8 -10 -3 -18 -2 -18 2 0 5 -17 8 -37 7 -21 -1 -38
-2 -38 -3 0 -1 -13 -3 -30 -5 -16 -2 -39 -5 -50 -8 -11 -2 -26 3 -33 12 -10
14 -11 14 -7 1 4 -12 -3 -16 -27 -18 -18 -1 -41 -5 -52 -8 -14 -5 -16 -3 -10
7 6 11 4 11 -10 0 -15 -13 -60 -22 -108 -22 -10 0 -18 -5 -18 -10 0 -6 -8 -6
-20 1 -14 7 -20 7 -20 0 0 -5 -7 -10 -16 -10 -9 0 -13 5 -9 13 4 6 0 4 -8 -5
-15 -20 -32 -25 -21 -7 3 6 -8 3 -25 -5 -17 -9 -47 -17 -67 -18 -19 -1 -37 -5
-40 -10 -3 -4 -9 -6 -14 -3 -5 3 -12 0 -16 -6 -4 -7 -3 -9 4 -5 6 3 13 2 17
-4 3 -5 1 -10 -4 -10 -6 0 -11 -7 -11 -15 0 -9 -6 -12 -16 -8 -13 5 -13 7 -2
14 7 5 8 9 2 9 -19 0 -24 -12 -13 -33 9 -15 8 -18 -2 -12 -9 6 -10 3 -5 -11 6
-15 5 -16 -5 -7 -8 8 -18 9 -29 3 -13 -7 -26 -1 -52 25 -26 24 -39 30 -47 22
-8 -8 -15 -6 -25 9 -14 19 -15 19 -13 -1 1 -11 -2 -20 -8 -20 -5 -1 -38 -7
-72 -14 -34 -8 -65 -13 -69 -11 -4 1 -10 -3 -13 -8 -3 -6 -19 -11 -36 -13 -16
-2 -36 -7 -42 -12 -7 -5 -13 -6 -13 -2 0 4 -7 2 -15 -5 -8 -7 -15 -9 -15 -5 0
4 -7 2 -15 -5 -8 -6 -19 -9 -24 -6 -5 4 -12 2 -16 -4 -3 -5 -19 -10 -35 -10
-16 0 -32 -5 -35 -10 -5 -8 -11 -7 -21 1 -12 9 -13 9 -9 -3 4 -9 0 -15 -10
-15 -9 0 -14 6 -11 14 3 8 1 11 -4 8 -6 -3 -10 -13 -10 -21 0 -8 -4 -14 -9
-14 -5 0 -16 -3 -25 -6 -9 -3 -16 -1 -16 6 0 6 6 8 13 4 6 -4 8 -3 4 1 -16 18
-35 13 -31 -9 2 -11 2 -15 -2 -8 -3 6 -10 12 -15 12 -6 0 -8 -4 -5 -9 8 -12
-20 -22 -41 -14 -10 4 -14 2 -10 -4 6 -10 -34 -34 -56 -32 -7 0 -3 4 7 8 19 7
19 8 -2 13 -12 3 -21 3 -20 -1 2 -18 -3 -31 -13 -31 -6 0 -8 7 -5 16 3 8 2 12
-4 9 -6 -3 -10 -13 -10 -21 0 -8 -5 -14 -11 -14 -5 0 -8 4 -5 8 3 5 -1 9 -8 9
-8 0 -12 -7 -9 -14 3 -8 2 -13 -3 -11 -5 1 -19 -3 -32 -10 -12 -7 -27 -10 -32
-7 -6 3 -10 2 -10 -3 0 -5 -8 -12 -17 -16 -10 -3 -25 -9 -33 -12 -12 -5 -13
-4 -1 4 11 8 8 10 -12 9 -27 -2 -38 -16 -14 -18 6 0 -1 -7 -18 -14 -31 -14
-59 -10 -48 8 3 6 1 7 -5 3 -6 -4 -9 -13 -6 -20 3 -9 -9 -19 -33 -29 -39 -15
-60 -13 -33 3 12 7 10 9 -6 8 -14 -1 -20 -7 -17 -18 3 -10 -9 -21 -34 -31 -34
-15 -39 -15 -49 -1 -9 12 -13 12 -19 2 -5 -9 -4 -11 3 -6 7 4 12 2 12 -4 0 -6
-37 -29 -83 -50 -76 -37 -83 -38 -96 -22 -12 16 -13 15 -7 -4 7 -22 -16 -40
-35 -28 -5 3 -9 -2 -9 -10 0 -9 -9 -16 -20 -16 -11 0 -20 -5 -20 -11 0 -5 -4
-8 -9 -5 -5 3 -14 -1 -21 -10 -7 -8 -19 -13 -27 -10 -7 3 -13 1 -13 -4 0 -5
-10 -12 -22 -16 -13 -4 -25 -10 -28 -13 -3 -3 -34 -21 -70 -40 -36 -18 -80
-42 -97 -53 -18 -11 -33 -17 -33 -13 0 3 -10 -3 -22 -15 -12 -11 -27 -20 -32
-20 -6 0 -23 -8 -38 -18 l-27 -18 25 -27 c14 -15 22 -32 19 -37 -3 -5 0 -7 9
-4 9 3 17 -2 21 -15 3 -12 11 -21 16 -21 6 0 8 -10 5 -22 -3 -13 -3 -17 0 -10
8 17 21 15 28 -4 4 -10 2 -13 -6 -8 -7 4 -8 3 -4 -4 4 -7 13 -12 20 -12 16 0
48 -45 39 -54 -11 -11 -24 -6 -17 6 4 7 3 8 -4 4 -15 -9 -5 -33 13 -33 8 0 12
4 9 9 -3 4 -1 8 5 8 5 0 23 -18 40 -39 29 -37 30 -40 14 -51 -17 -10 -16 -11
2 -6 15 4 27 -5 49 -37 16 -23 28 -42 26 -42 -2 0 7 -12 20 -27 40 -42 51 -58
43 -58 -4 0 0 -5 10 -11 9 -5 17 -17 17 -24 0 -8 3 -15 8 -15 13 0 54 -69 47
-80 -3 -6 -3 -9 2 -8 4 1 18 -4 30 -12 16 -10 19 -18 12 -27 -6 -7 -9 -18 -6
-25 4 -8 6 -7 6 5 1 9 6 17 12 17 6 0 9 -8 6 -19 -2 -10 0 -25 4 -34 6 -10 4
-21 -6 -31 -14 -13 -13 -15 3 -13 16 1 19 8 17 39 -3 41 9 51 20 18 4 -12 11
-17 18 -13 6 3 1 -8 -12 -25 -22 -32 -29 -35 -66 -33 l-20 1 20 -9 c11 -5 23
-7 27 -4 4 2 5 -2 2 -10 -6 -17 -46 -16 -60 2 -9 11 -12 12 -19 1 -5 -8 -4
-11 2 -7 6 4 13 0 17 -8 3 -8 12 -12 21 -9 20 8 19 -4 -3 -24 -10 -10 -11 -13
-2 -7 13 8 13 7 -1 -10 -9 -11 -29 -46 -44 -77 -15 -32 -31 -56 -35 -53 -5 3
-6 -4 -3 -15 3 -11 0 -20 -6 -20 -6 0 -10 -5 -8 -12 1 -7 -3 -12 -10 -13 -6 0
-15 -4 -20 -9 -4 -5 -3 -6 4 -2 18 10 25 -11 12 -36 -7 -13 -14 -32 -16 -43
-2 -11 -5 -29 -7 -40 -2 -11 -4 -37 -5 -58 0 -23 -5 -36 -11 -32 -5 3 -10 2
-10 -4 0 -5 4 -11 9 -13 5 -1 11 -23 14 -48 9 -71 12 -85 17 -90 15 -14 60
-91 60 -101 0 -7 3 -9 7 -6 3 4 19 -7 35 -23 15 -17 31 -30 34 -30 3 0 27 -22
55 -50 27 -27 54 -50 59 -50 6 0 10 -12 11 -27 0 -20 2 -23 7 -12 6 14 14 11
52 -23 36 -32 41 -41 30 -49 -11 -8 -10 -9 7 -4 13 4 25 1 30 -8 4 -7 23 -24
41 -37 17 -13 32 -29 32 -34 0 -6 -5 -4 -11 4 -9 13 -10 13 -6 0 2 -8 11 -14
21 -12 9 2 16 -4 16 -13 0 -9 4 -14 8 -11 5 3 34 -20 66 -50 51 -48 56 -57 44
-72 -12 -15 -11 -16 5 -3 14 11 15 16 5 29 -11 13 -10 14 7 4 11 -7 33 -17 49
-22 25 -9 27 -12 15 -28 -13 -16 -12 -16 4 -3 22 18 59 22 50 7 -5 -8 -3 -8 8
0 8 6 27 11 43 12 21 2 26 -1 20 -11 -5 -7 -2 -5 8 5 12 13 18 15 21 6 3 -8 6
-6 6 5 1 10 5 16 10 12 5 -3 12 -1 15 4 3 5 16 7 29 5 12 -2 16 -2 9 2 -15 7
-6 24 14 24 8 0 12 -4 9 -10 -3 -6 1 -7 10 -3 13 4 14 8 4 13 -9 6 -9 12 4 24
18 18 37 21 37 6 0 -5 -4 -10 -10 -10 -5 0 -10 -4 -10 -10 0 -16 17 -12 24 6
4 9 1 23 -5 30 -9 11 -9 14 0 14 7 0 9 5 5 13 -4 6 -4 9 1 5 4 -4 14 0 20 9
11 15 17 12 54 -28 38 -41 56 -79 29 -63 -7 4 -8 3 -4 -5 4 -6 12 -8 18 -4 10
5 46 7 89 4 6 -1 9 -7 6 -14 -3 -7 3 -13 14 -13 12 0 15 4 8 12 -12 15 12 26
32 14 8 -6 17 -4 22 3 6 8 7 5 4 -9 -3 -15 1 -20 14 -19 10 1 22 5 26 9 5 4 3
6 -2 4 -6 -1 -12 1 -15 6 -3 5 3 10 13 12 9 1 17 -4 17 -11 0 -19 17 -28 26
-14 4 8 3 9 -4 5 -7 -4 -12 -1 -12 6 0 8 13 13 30 14 17 1 30 -2 30 -6 0 -4
12 -12 28 -19 l27 -12 -25 21 c-18 14 -20 20 -10 20 9 0 21 -5 27 -11 8 -8 13
-7 18 2 5 8 4 10 -3 5 -12 -7 -17 6 -6 17 8 8 64 -74 58 -84 -9 -15 26 -17 41
-3 8 9 15 13 15 11 0 -2 17 11 37 31 21 19 51 41 68 48 16 7 29 15 28 18 -2 3
-1 6 2 6 3 0 11 0 19 0 8 0 18 -9 21 -21 5 -15 10 -17 19 -10 7 6 17 7 21 3 5
-4 5 -2 1 5 -4 7 -13 10 -21 6 -8 -3 -15 0 -15 6 0 6 5 11 11 11 5 0 7 5 4 10
-4 6 -16 8 -28 5 -21 -6 -21 -6 -3 9 18 15 21 13 42 -17 12 -17 20 -36 17 -40
-3 -5 1 -8 8 -6 35 4 48 -2 44 -20 -2 -11 4 -26 13 -33 15 -11 15 -11 6 2 -14
20 -12 42 5 48 8 3 11 0 8 -5 -4 -6 31 -9 93 -8 60 1 97 -2 93 -8 -3 -5 6 -2
19 7 14 9 28 13 31 9 4 -3 7 -1 7 5 0 6 9 9 19 7 11 -2 22 3 25 12 5 13 9 13
23 2 9 -8 14 -9 10 -2 -4 7 12 27 42 50 27 21 55 48 62 61 7 12 16 22 21 22 5
0 6 -5 3 -10 -8 -13 12 -40 29 -40 6 0 3 5 -6 11 -10 5 -18 15 -18 20 0 6 13
1 30 -11 25 -18 32 -19 50 -8 11 7 20 17 20 22 0 4 -6 4 -12 -2 -9 -7 -17 -6
-26 4 -7 8 -9 15 -5 15 4 1 14 2 22 3 8 0 16 8 18 16 4 13 3 13 -6 0 -15 -22
-24 -5 -11 20 10 18 9 21 -1 15 -8 -6 -10 -4 -4 6 7 11 6 12 -7 2 -8 -7 -18
-9 -23 -5 -4 4 -2 -3 4 -16 11 -21 11 -23 -6 -14 -15 9 -19 7 -19 -8 0 -15 3
-17 15 -7 11 10 13 9 9 -3 -3 -8 1 -23 10 -32 23 -27 1 -21 -36 10 l-33 27 23
25 c13 13 24 28 24 32 1 5 3 10 4 13 1 3 3 9 4 15 0 5 8 15 16 22 12 11 12 11
0 -6 -14 -17 -13 -18 8 -12 15 5 22 3 24 -6 1 -14 5 -30 8 -38 1 -3 4 -18 6
-35 2 -16 10 -41 17 -54 9 -19 9 -25 0 -28 -7 -3 -13 -9 -13 -14 0 -4 6 -6 13
-3 12 4 15 -5 18 -61 1 -11 3 -14 6 -7 3 8 26 12 64 12 45 0 58 -3 53 -12 -6
-10 -4 -10 7 0 17 16 81 16 98 -1 11 -10 12 -9 6 1 -5 10 1 13 26 12 57 -3 80
0 75 9 -3 5 1 12 10 15 12 5 15 2 10 -11 -6 -15 -5 -16 5 -5 11 10 10 16 -5
30 -11 9 -16 11 -12 5 4 -7 3 -13 -2 -13 -5 0 -8 16 -8 35 1 19 5 35 11 35 5
0 3 5 -5 10 -12 8 -12 10 -1 10 11 0 11 3 0 17 -8 10 -9 14 -2 10 6 -4 14 -3
18 3 3 5 2 10 -3 10 -5 0 -9 7 -9 15 0 8 4 12 8 9 4 -2 7 5 6 16 -1 11 -4 20
-7 20 -4 0 -7 7 -7 15 0 8 4 12 9 9 4 -3 8 2 8 10 0 8 3 17 8 19 4 3 7 -5 7
-18 0 -13 -3 -21 -7 -18 -5 2 -8 0 -8 -6 0 -5 4 -12 8 -15 5 -3 8 -28 7 -56
-1 -28 3 -54 7 -56 5 -3 4 -12 -3 -20 -6 -8 -7 -14 -2 -14 14 0 9 -56 -8 -77
-12 -16 -12 -17 1 -6 10 7 54 11 125 10 l111 -2 -4 29 c-3 19 -1 27 6 22 6 -3
14 -2 17 4 4 6 1 9 -6 8 -7 -2 -13 5 -12 15 0 9 1 35 2 57 1 33 4 38 19 33 14
-5 13 -3 -3 10 -31 24 3 40 50 22 14 -5 16 -4 6 3 -8 6 -9 12 -3 16 6 3 18 -4
26 -16 9 -12 16 -18 16 -12 0 5 -5 15 -12 22 -7 7 -8 12 -2 12 17 0 33 -22 27
-39 -4 -12 -2 -11 9 3 20 25 41 16 62 -28 9 -20 21 -36 27 -36 6 0 8 -4 5 -9
-3 -4 5 -21 19 -37 13 -15 22 -31 19 -36 -3 -4 0 -8 5 -8 6 0 11 -5 11 -11 0
-5 -4 -8 -8 -5 -4 2 -14 0 -22 -5 -11 -7 -8 -8 12 -5 20 3 31 -1 43 -20 9 -14
13 -29 10 -35 -4 -5 -2 -8 4 -7 5 2 16 -6 25 -17 10 -14 14 -16 14 -5 -3 41 2
52 20 46 16 -6 16 -5 0 7 -10 8 -15 17 -11 20 3 4 12 2 20 -4 7 -7 13 -7 13
-2 0 6 13 10 30 9 16 -1 30 -4 30 -8 0 -5 5 -8 11 -8 5 0 8 4 5 8 -2 4 4 8 15
8 10 0 19 -4 19 -9 0 -4 6 -2 14 5 7 7 11 20 9 28 -3 10 -1 9 7 -3 6 -9 8 -22
5 -27 -3 -6 -1 -10 4 -10 6 0 11 -11 11 -24 0 -13 7 -27 16 -30 8 -3 12 -11 8
-17 -4 -8 -3 -9 5 -5 9 6 9 11 0 22 -19 23 -4 43 28 38 20 -3 24 -2 13 5 -8 5
-18 7 -22 5 -11 -7 -10 4 2 27 6 10 16 19 22 19 7 0 6 -5 -2 -15 -7 -8 -10
-16 -6 -16 29 -5 50 -1 54 11 2 11 1 12 -5 3 -6 -8 -14 -9 -23 -3 -8 6 -11 10
-6 10 5 0 3 7 -4 15 -10 12 -10 15 3 15 8 0 17 -6 20 -12 3 -7 4 -3 4 8 -1 15
-6 20 -16 16 -14 -5 -14 -4 -1 10 16 17 32 14 28 -5 -1 -7 1 -25 5 -40 5 -19
3 -35 -5 -45 -7 -10 -1 -7 12 5 19 16 29 19 43 12 9 -6 17 -7 17 -3 0 4 10 -1
22 -12 15 -12 18 -13 10 -3 -11 15 -1 16 113 16 126 1 158 -8 139 -38 -4 -8
-3 -9 5 -5 6 4 9 15 7 24 -5 14 1 17 37 16 24 0 48 -4 54 -7 6 -4 14 -1 16 5
4 9 6 9 6 1 1 -8 10 -9 31 -3 17 5 28 5 25 0 -3 -5 -1 -11 5 -15 5 -3 10 -2
10 4 0 6 21 10 46 9 30 0 41 -4 33 -9 -8 -5 -9 -9 -4 -9 16 0 40 18 33 26 -4
3 -2 12 5 19 9 10 14 9 24 -4 7 -9 13 -24 13 -33 0 -10 5 -18 10 -18 6 0 10
-12 10 -27 0 -14 3 -23 7 -20 3 4 12 -1 20 -11 8 -9 12 -12 9 -5 -4 6 8 22 26
34 18 13 35 26 38 29 22 27 204 135 197 117 -3 -8 -1 -20 4 -28 6 -9 7 -1 4
23 -3 29 0 38 10 38 8 0 14 6 12 13 -1 7 6 11 17 9 16 -3 18 -1 8 10 -9 12 -6
20 18 43 16 16 33 25 37 22 3 -4 1 -7 -7 -7 -10 0 -10 -3 0 -15 10 -12 10 -15
0 -15 -10 0 -9 -4 1 -16 14 -18 23 -88 10 -80 -5 3 -7 19 -6 36 1 16 -1 27 -6
24 -5 -3 -6 -10 -3 -16 4 -7 2 -8 -4 -4 -7 4 -12 14 -12 22 0 8 -4 14 -10 14
-11 0 -9 -22 3 -31 5 -3 1 -9 -8 -12 -11 -5 -14 -3 -10 6 4 6 0 4 -8 -5 -8
-10 -16 -16 -18 -13 -3 2 -5 -6 -6 -18 0 -12 1 -16 4 -9 3 7 14 17 26 24 21
10 21 10 5 -8 -12 -14 -14 -23 -7 -34 9 -13 10 -12 5 2 -3 10 -1 20 4 23 5 3
11 -3 15 -14 3 -11 13 -22 21 -25 11 -4 10 1 -5 20 -19 24 -19 60 0 48 5 -3 7
-9 4 -14 -3 -5 3 -16 12 -26 21 -20 26 -44 10 -44 -7 0 -4 -5 6 -11 15 -9 16
-13 6 -26 -11 -13 -10 -15 6 -13 54 6 126 -1 119 -11 -4 -8 -1 -8 12 -2 23 11
34 11 53 -1 9 -6 12 -5 8 1 -4 7 9 9 36 7 23 -1 47 -3 54 -3 7 -1 10 -7 7 -15
-3 -8 -1 -17 5 -21 7 -4 8 0 5 10 -5 11 11 32 47 65 49 46 79 64 64 41 -9 -15
15 -25 28 -12 9 9 8 11 -4 6 -23 -9 -20 24 4 48 14 14 21 16 27 7 5 -8 9 -7
13 5 4 9 3 13 -3 10 -6 -3 -10 -1 -10 6 0 6 8 9 19 6 15 -3 18 -1 14 11 -4 10
-2 13 5 8 7 -4 12 -1 12 7 0 8 9 22 19 31 15 13 20 14 24 4 3 -7 6 -3 6 10 1
25 4 26 34 11 20 -9 20 -9 5 4 -16 13 -16 16 10 40 27 26 49 37 38 19 -3 -5 1
-9 9 -9 11 0 12 4 4 14 -12 13 3 43 21 43 5 0 27 19 50 42 23 24 46 43 50 43
5 0 12 4 17 8 4 5 3 8 -2 7 -25 -5 -33 2 -31 30 1 17 -2 30 -7 30 -5 0 -3 8 4
17 8 9 9 14 4 11 -6 -4 -11 1 -11 10 -1 9 -4 42 -9 72 -4 30 -9 64 -10 75 -1
11 -3 20 -5 20 -1 0 -3 10 -4 22 -1 12 1 20 6 17 4 -3 8 -1 8 5 0 5 -5 11 -10
13 -6 2 -12 32 -15 68 -2 36 -5 65 -5 65 -1 0 -3 8 -5 18 -2 13 1 17 11 13 11
-4 12 -2 4 14 -14 27 -12 38 4 17 12 -16 14 -16 20 -2 3 9 2 14 -3 11 -5 -3
-12 1 -15 10 -5 12 -1 14 17 9 21 -6 21 -5 4 9 -18 14 -17 16 4 58 12 23 29
49 38 56 10 8 10 11 2 6 -11 -5 -13 -3 -8 10 4 10 7 20 7 22 0 2 5 4 11 4 5 0
8 -4 4 -9 -3 -5 0 -13 6 -17 7 -4 9 -3 6 3 -3 5 3 25 14 44 l20 34 -21 -24
c-37 -43 -30 -17 9 34 24 33 45 50 58 49 13 0 19 4 16 13 -3 7 2 13 11 13 9 0
15 3 14 8 -2 4 1 7 5 7 5 0 13 8 19 19 8 15 12 16 19 5 5 -8 6 2 2 25 -4 27
-2 41 8 47 10 6 10 9 2 9 -8 0 -13 13 -13 30 0 17 5 30 13 30 7 0 8 3 2 8 -15
11 -15 101 0 96 6 -3 18 3 26 13 13 16 12 17 -4 4 -9 -8 -21 -11 -24 -7 -11
11 -12 36 -1 36 7 0 7 4 1 13 -8 9 -10 76 -4 96 0 2 9 -2 19 -10 10 -8 8 -4
-5 8 -23 22 -31 39 -13 28 5 -3 8 0 5 7 -10 30 -13 68 -4 63 5 -4 9 -1 9 4 0
6 -3 11 -8 11 -4 0 -8 25 -8 55 -1 33 3 55 10 55 7 0 7 3 -1 8 -13 8 -12 29 1
51 6 10 5 12 -2 7 -8 -5 -12 3 -12 24 0 22 4 29 13 24 8 -6 8 -3 -1 9 -9 11
-13 37 -10 81 1 35 0 62 -4 60 -4 -2 -9 0 -13 6 -3 5 -15 10 -26 10 -10 0 -19
5 -19 10 0 6 -9 10 -20 10 -11 0 -20 5 -20 10 0 6 -5 10 -12 10 -14 0 -118 49
-118 56 0 3 10 3 23 0 12 -3 16 -3 9 0 -10 5 -10 9 0 22 7 9 -2 5 -21 -8 -28
-19 -33 -21 -28 -6 4 10 3 15 -3 11 -12 -7 -80 16 -80 27 0 4 -6 8 -14 8 -19
0 -120 42 -127 53 -4 5 -13 6 -20 2 -9 -6 -10 -3 -5 11 5 14 4 16 -4 8 -9 -9
-25 -6 -63 8 -29 11 -56 24 -61 29 -6 5 -18 9 -28 9 -10 0 -18 5 -18 11 0 5
-5 7 -11 4 -6 -4 -17 1 -25 11 -10 14 -14 15 -12 4 2 -8 -3 -14 -10 -12 -6 1
-11 -4 -10 -10 2 -7 -3 -12 -10 -10 -6 1 -11 -3 -10 -10 2 -7 -2 -12 -9 -13
-6 0 -15 -4 -20 -9 -5 -5 -3 -6 5 -2 19 11 14 1 -15 -33 -15 -17 -37 -31 -49
-31 -27 0 -50 -25 -33 -36 8 -5 9 -3 4 6 -6 9 -4 11 5 5 9 -5 11 -4 6 3 -4 8
0 12 11 12 13 0 6 -12 -28 -44 -29 -29 -53 -43 -65 -41 -10 2 -23 4 -27 4 -5
1 -5 6 -2 11 4 7 13 7 25 0 16 -9 19 -8 14 7 -5 15 -4 16 5 3 8 -11 11 -12 11
-2 0 7 4 11 8 8 4 -2 8 4 8 14 0 10 -4 16 -8 14 -4 -3 -8 -2 -8 3 0 4 13 17
29 28 17 11 28 21 27 23 -2 2 -20 -8 -40 -22 -20 -13 -32 -27 -26 -31 5 -3 10
-10 10 -16 0 -5 -9 -4 -19 3 -11 7 -17 16 -15 20 3 4 0 8 -5 8 -17 0 -13 -18
5 -28 11 -6 13 -12 6 -16 -6 -3 -17 2 -24 11 -18 25 -38 27 -33 3 2 -11 -2
-20 -8 -20 -8 0 -8 -3 1 -9 11 -7 10 -9 -3 -15 -9 -3 -14 -10 -10 -15 6 -11
45 -10 45 1 0 3 9 6 20 5 11 -1 20 -2 20 -4 0 -8 -54 -58 -63 -58 -7 0 -12 -5
-12 -12 0 -6 -4 -15 -9 -20 -5 -4 -6 -3 -3 3 4 7 0 15 -9 18 -24 9 -27 7 -14
-9 11 -13 9 -20 -10 -40 -13 -14 -26 -23 -28 -20 -3 3 -11 0 -19 -6 -9 -9 -13
-8 -13 0 0 6 5 12 10 12 6 1 15 2 21 3 17 2 42 43 30 50 -5 4 -12 -3 -16 -14
-7 -20 -25 -28 -25 -10 0 6 5 10 10 10 6 0 10 6 10 14 0 8 8 17 18 20 9 3 23
15 31 27 11 19 11 21 -3 16 -19 -8 -21 6 -3 25 6 7 14 20 16 28 8 30 7 95 -2
108 -6 7 -7 15 -4 18 3 3 -2 14 -11 23 -39 41 -60 70 -55 75 4 3 -1 6 -11 6
-13 0 -16 5 -11 23 4 15 4 18 -3 8 -8 -11 -14 -10 -36 5 -14 11 -26 25 -26 32
0 6 -5 12 -11 12 -5 0 -7 -6 -3 -12 5 -7 -3 -5 -16 5 -14 9 -42 24 -62 33 -21
9 -38 24 -39 33 0 9 -3 11 -5 4 -4 -8 -15 -7 -42 4 -20 8 -48 20 -62 26 -14 6
-27 11 -30 12 -3 1 -20 6 -38 10 -28 6 -33 12 -28 29 5 20 4 20 -9 3 -10 -15
-18 -16 -33 -8 -11 6 -22 7 -26 4 -4 -4 -13 3 -22 15 -8 12 -20 22 -26 22 -7
0 -4 -6 7 -13 16 -13 15 -14 -13 -9 -21 3 -32 10 -32 21 0 9 -3 12 -8 6 -8
-12 -27 -13 -37 -3 -4 4 -14 4 -23 1 -10 -4 -13 -2 -8 6 5 8 0 10 -21 7 -31
-6 -47 1 -56 24 -4 12 -6 11 -6 -2 -1 -19 -31 -26 -31 -7 0 5 -5 7 -12 3 -8
-5 -9 -1 -5 12 7 18 7 18 -7 0 -14 -17 -17 -17 -46 -3 -16 9 -28 11 -25 6 4
-5 -9 -7 -32 -3 -21 4 -47 8 -58 9 -11 1 -23 3 -27 4 -4 0 -5 9 -2 19 5 15 5
16 -5 0 -8 -12 -23 -16 -59 -13 -30 2 -46 7 -44 15 1 7 -3 8 -9 4 -21 -13 -90
-12 -85 1 2 6 -2 12 -10 12 -7 0 -11 -4 -8 -8 3 -5 -16 -8 -41 -7 -25 0 -49
-2 -52 -6 -3 -3 -7 -24 -9 -46 -4 -54 -7 -58 -51 -53 -21 2 -50 4 -65 5 -16 1
-28 6 -28 10 0 5 10 7 23 3 19 -5 20 -4 4 5 -9 6 -22 8 -28 4 -7 -4 -9 0 -5
14 5 13 1 22 -10 26 -14 5 -15 4 -4 -9 7 -8 8 -15 3 -15 -5 0 -10 -7 -10 -15
0 -8 4 -12 9 -9 4 3 8 0 8 -5 0 -6 -9 -11 -21 -11 -11 0 -17 4 -14 10 3 5 8
32 9 59 3 42 1 50 -16 54 -11 3 -17 10 -14 16 4 5 2 12 -3 16 -6 3 -8 -3 -6
-15 3 -15 -1 -20 -16 -20 -11 0 -18 4 -15 8 3 5 -1 9 -9 9 -8 0 -11 -5 -8 -11
4 -6 -2 -4 -12 4 -11 9 -16 10 -11 3 4 -8 1 -13 -9 -13 -9 0 -13 5 -9 11 4 8
1 8 -12 1 -11 -5 -28 -6 -39 -2 -11 4 -30 4 -42 -1 -14 -5 -23 -5 -23 1 0 12
-22 9 -32 -5 -5 -6 -8 -5 -8 3 0 8 -5 10 -12 6 -8 -5 -9 -1 -5 12 6 15 3 13
-11 -5 -13 -16 -21 -20 -26 -12 -4 6 -12 9 -17 6 -5 -4 -9 -1 -9 6 0 7 -6 5
-13 -6 -10 -13 -16 -15 -21 -6 -4 6 -12 8 -18 5 -7 -5 -9 -1 -5 9 3 10 5 17 4
16 -1 0 -11 -4 -22 -9z m-427 -121 c3 -9 -2 -8 -17 5 -11 11 -21 14 -21 8 0
-7 -4 -12 -9 -12 -5 0 -7 9 -4 20 5 19 8 19 26 7 12 -8 23 -20 25 -28z m-806
-131 c-7 -7 -12 -8 -12 -2 0 14 12 26 19 19 2 -3 -1 -11 -7 -17z m3270 -363
c0 -5 -5 -11 -10 -13 -5 -1 -9 4 -9 13 0 9 4 14 9 13 5 -2 10 -8 10 -13z m-12
-35 c-8 -5 -19 -10 -25 -10 -5 0 -3 5 5 10 8 5 20 10 25 10 6 0 3 -5 -5 -10z
m-60 -44 c0 -2 -7 -7 -16 -10 -8 -3 -12 -2 -9 4 6 10 25 14 25 6z m-110 -176
c0 -5 -5 -10 -11 -10 -5 0 -7 5 -4 10 3 6 8 10 11 10 2 0 4 -4 4 -10z m-1200
-480 c0 -5 -2 -10 -4 -10 -3 0 -8 5 -11 10 -3 6 -1 10 4 10 6 0 11 -4 11 -10z
m20 -24 c0 -2 -7 -7 -16 -10 -8 -3 -12 -2 -9 4 6 10 25 14 25 6z m-9 -39 c-10
-9 -11 -8 -5 6 3 10 9 15 12 12 3 -3 0 -11 -7 -18z m4 -26 c-9 -8 -36 -10 -30
-2 2 4 11 8 20 8 8 0 13 -3 10 -6z m-18 -46 c0 -8 -4 -12 -9 -9 -5 3 -6 10 -3
15 9 13 12 11 12 -6z m0 -40 c0 -8 -4 -12 -9 -9 -5 3 -6 10 -3 15 9 13 12 11
12 -6z m-704 -650 c-7 -21 -12 -19 -10 4 0 11 5 18 9 15 4 -3 5 -11 1 -19z
m-12 -128 c-10 -9 -11 -8 -5 6 3 10 9 15 12 12 3 -3 0 -11 -7 -18z m16 -22 c0
-8 -4 -12 -9 -9 -5 3 -6 10 -3 15 9 13 12 11 12 -6z m3 -75 c0 -5 -2 -10 -4
-10 -3 0 -8 5 -11 10 -3 6 -1 10 4 10 6 0 11 -4 11 -10z m0 -40 c0 -5 -5 -10
-11 -10 -5 0 -7 5 -4 10 3 6 8 10 11 10 2 0 4 -4 4 -10z m-5 -30 c3 -6 -1 -7
-9 -4 -18 7 -21 14 -7 14 6 0 13 -4 16 -10z m0 -72 c-1 -12 -8 -24 -16 -26
-12 -3 -12 -2 0 6 10 7 10 11 1 17 -9 6 -9 10 1 16 8 5 14 9 15 9 0 0 0 -10
-1 -22z m302 -14 c12 -16 11 -21 -4 -33 -17 -13 -17 -13 0 -7 21 7 60 -11 52
-23 -3 -5 2 -12 11 -15 9 -4 14 -9 10 -13 -3 -4 4 -18 16 -31 13 -14 17 -22
11 -18 -8 4 -13 2 -13 -5 0 -8 -4 -8 -15 1 -8 7 -12 16 -9 21 3 5 0 9 -7 9 -8
0 -7 5 2 17 8 9 9 14 2 10 -6 -4 -13 -1 -16 5 -3 10 -8 9 -22 -2 -14 -11 -17
-11 -11 -2 7 11 4 12 -13 3 -11 -7 -21 -14 -21 -17 0 -3 5 -2 11 2 13 8 29
-14 23 -31 -3 -7 -19 -12 -37 -13 -26 -1 -29 1 -14 9 9 6 21 8 25 5 5 -3 9 1
9 9 0 10 -5 11 -18 4 -21 -11 -36 6 -21 24 5 7 8 20 7 30 -3 15 -1 16 11 6 9
-7 14 -8 14 -1 0 6 -5 14 -10 17 -6 4 -8 16 -4 27 3 12 2 18 -3 15 -5 -4 -10
0 -10 7 0 19 27 13 44 -10z m-303 -49 c3 -9 -1 -18 -9 -21 -8 -4 -12 -11 -8
-17 4 -6 1 -7 -7 -2 -10 6 -10 10 3 20 12 9 14 14 5 23 -8 8 -9 12 -1 12 6 0
14 -7 17 -15z m-417 -31 c-3 -3 -12 -4 -19 -1 -8 3 -5 6 6 6 11 1 17 -2 13 -5z
m758 -32 c-2 -9 -4 -19 -5 -22 0 -3 -5 3 -11 13 -5 9 -7 22 -4 27 9 15 24 2
20 -18z"/>
<path d="M3664 2292 c-1 -15 1 -21 3 -14 3 6 9 9 15 6 6 -4 5 2 -1 15 -15 27
-16 27 -17 -7z"/>
<path d="M3682 2245 c-10 -8 -23 -11 -27 -7 -5 4 -5 2 -1 -5 3 -6 2 -14 -4
-18 -5 -3 -10 -11 -10 -17 0 -5 8 -1 18 11 9 12 28 23 41 26 30 6 36 11 18 18
-8 3 -24 -1 -35 -8z"/>
<path d="M3475 4860 c3 -5 8 -10 11 -10 2 0 4 5 4 10 0 6 -5 10 -11 10 -5 0
-7 -4 -4 -10z"/>
<path d="M4316 4861 c-3 -5 1 -14 9 -21 8 -7 12 -17 8 -23 -4 -6 -1 -7 6 -3 9
6 9 12 -3 25 -9 10 -13 21 -9 24 3 4 4 7 0 7 -3 0 -8 -4 -11 -9z"/>
<path d="M2635 4840 c-3 -5 -1 -10 4 -10 6 0 11 5 11 10 0 6 -2 10 -4 10 -3 0
-8 -4 -11 -10z"/>
<path d="M2750 4841 c0 -6 4 -12 8 -15 5 -3 9 1 9 9 0 8 -4 15 -9 15 -4 0 -8
-4 -8 -9z"/>
<path d="M2927 4839 c7 -7 15 -10 18 -7 3 3 -2 9 -12 12 -14 6 -15 5 -6 -5z"/>
<path d="M3926 4842 c-3 -5 1 -9 9 -9 8 0 12 4 9 9 -3 4 -7 8 -9 8 -2 0 -6 -4
-9 -8z"/>
<path d="M4540 4846 c0 -2 8 -10 18 -17 15 -13 16 -12 3 4 -13 16 -21 21 -21
13z"/>
<path d="M2356 4813 c-6 -14 -5 -15 5 -6 7 7 10 15 7 18 -3 3 -9 -2 -12 -12z"/>
<path d="M2586 4822 c-2 -4 4 -8 14 -8 10 0 16 4 14 8 -3 4 -9 8 -14 8 -5 0
-11 -4 -14 -8z"/>
<path d="M2776 4813 c-6 -14 -5 -15 5 -6 7 7 10 15 7 18 -3 3 -9 -2 -12 -12z"/>
<path d="M4032 4823 c5 -15 -34 -62 -47 -57 -7 3 -16 0 -20 -6 -6 -9 -10 -9
-16 1 -4 7 -11 10 -16 6 -12 -12 19 -27 33 -16 6 5 18 7 25 5 17 -6 62 61 48
70 -5 3 -8 2 -7 -3z"/>
<path d="M4190 4819 c0 -5 5 -7 10 -4 6 3 10 8 10 11 0 2 -4 4 -10 4 -5 0 -10
-5 -10 -11z"/>
<path d="M4655 4820 c-3 -5 -1 -10 4 -10 6 0 11 5 11 10 0 6 -2 10 -4 10 -3 0
-8 -4 -11 -10z"/>
<path d="M2975 4811 c-3 -5 -2 -12 3 -15 5 -3 9 1 9 9 0 17 -3 19 -12 6z"/>
<path d="M3013 4805 c-3 -9 -3 -18 -1 -21 3 -3 8 4 11 16 6 23 -1 27 -10 5z"/>
<path d="M3893 4805 c0 -7 7 -11 15 -7 10 3 13 1 8 -6 -4 -7 -3 -12 1 -12 5 0
14 10 22 23 9 16 10 19 1 10 -9 -8 -19 -9 -30 -3 -12 6 -17 5 -17 -5z"/>
<path d="M3981 4803 c7 -12 15 -20 18 -17 3 2 -3 12 -13 22 -17 16 -18 16 -5
-5z"/>
<path d="M4421 4804 c0 -11 3 -14 6 -6 3 7 2 16 -1 19 -3 4 -6 -2 -5 -13z"/>
<path d="M4453 4806 c0 -15 22 -15 34 0 4 5 4 6 -1 2 -5 -4 -14 -3 -21 2 -8 7
-12 5 -12 -4z"/>
<path d="M2490 4795 c5 -7 6 -16 2 -21 -4 -5 -3 -5 2 -1 15 12 15 34 0 34 -9
0 -11 -4 -4 -12z"/>
<path d="M4500 4806 c0 -2 8 -10 18 -17 15 -13 16 -12 3 4 -13 16 -21 21 -21
13z"/>
<path d="M4536 4798 c3 -5 10 -6 15 -3 13 9 11 12 -6 12 -8 0 -12 -4 -9 -9z"/>
<path d="M4600 4800 c-12 -7 -10 -9 7 -7 12 0 19 5 17 9 -6 10 -6 10 -24 -2z"/>
<path d="M4759 4793 c-13 -16 -12 -17 4 -4 16 13 21 21 13 21 -2 0 -10 -8 -17
-17z"/>
<path d="M2536 4791 c-4 -5 3 -7 14 -4 23 6 26 13 6 13 -8 0 -17 -4 -20 -9z"/>
<path d="M3950 4790 c0 -5 5 -10 11 -10 5 0 7 5 4 10 -3 6 -8 10 -11 10 -2 0
-4 -4 -4 -10z"/>
<path d="M2425 4780 c-3 -6 1 -7 9 -4 18 7 21 14 7 14 -6 0 -13 -4 -16 -10z"/>
<path d="M4910 4779 c0 -5 5 -7 10 -4 6 3 10 8 10 11 0 2 -4 4 -10 4 -5 0 -10
-5 -10 -11z"/>
<path d="M2274 4769 c-3 -6 -2 -15 3 -20 5 -5 9 -1 9 11 0 23 -2 24 -12 9z"/>
<path d="M2356 4767 c3 -10 9 -15 12 -12 3 3 0 11 -7 18 -10 9 -11 8 -5 -6z"/>
<path d="M4035 4770 c-3 -5 -3 -10 2 -10 4 0 2 -4 -6 -9 -10 -7 -11 -12 -1
-27 8 -14 10 -15 6 -2 -2 9 -2 19 2 22 7 7 12 36 7 36 -2 0 -7 -4 -10 -10z"/>
<path d="M1839 4753 c-13 -16 -12 -17 4 -4 9 7 17 15 17 17 0 8 -8 3 -21 -13z"/>
<path d="M1965 4760 c-3 -6 1 -7 9 -4 18 7 21 14 7 14 -6 0 -13 -4 -16 -10z"/>
<path d="M2166 4762 c-3 -5 1 -9 9 -9 8 0 12 4 9 9 -3 4 -7 8 -9 8 -2 0 -6 -4
-9 -8z"/>
<path d="M4750 4766 c0 -2 7 -7 16 -10 8 -3 12 -2 9 4 -6 10 -25 14 -25 6z"/>
<path d="M4720 4756 c0 -2 7 -7 16 -10 8 -3 12 -2 9 4 -6 10 -25 14 -25 6z"/>
<path d="M2090 4740 c0 -5 5 -10 11 -10 5 0 7 5 4 10 -3 6 -8 10 -11 10 -2 0
-4 -4 -4 -10z"/>
<path d="M3971 4736 c-12 -14 -12 -16 4 -10 11 5 16 3 12 -2 -3 -5 3 -10 13
-10 10 0 16 6 13 13 -3 7 -9 11 -13 8 -5 -3 -10 0 -12 6 -2 7 -9 5 -17 -5z"/>
<path d="M2209 4723 c-12 -14 -12 -16 0 -8 11 6 13 4 8 -9 -4 -9 -3 -15 2 -11
6 3 9 14 8 25 -2 24 -1 24 -18 3z"/>
<path d="M4865 4719 c-4 -6 -5 -12 -2 -15 2 -3 7 2 10 11 7 17 1 20 -8 4z"/>
<path d="M4896 4718 c3 -5 10 -6 15 -3 13 9 11 12 -6 12 -8 0 -12 -4 -9 -9z"/>
<path d="M5119 4713 c-13 -16 -12 -17 4 -4 9 7 17 15 17 17 0 8 -8 3 -21 -13z"/>
<path d="M4991 4707 c-8 -10 -7 -14 2 -14 8 0 14 6 14 14 0 7 -1 13 -2 13 -2
0 -8 -6 -14 -13z"/>
<path d="M2150 4700 c-9 -6 -10 -10 -3 -10 6 0 15 5 18 10 8 12 4 12 -15 0z"/>
<path d="M2187 4694 c4 -12 3 -15 -5 -10 -7 4 -12 3 -12 -1 0 -5 9 -14 20 -21
12 -7 20 -8 20 -2 0 5 -4 10 -10 10 -5 0 -7 6 -4 14 3 8 1 17 -5 21 -7 4 -8 0
-4 -11z"/>
<path d="M5025 4700 c-3 -6 1 -7 9 -4 18 7 21 14 7 14 -6 0 -13 -4 -16 -10z"/>
<path d="M1955 4681 c-3 -5 -2 -12 3 -15 5 -3 9 1 9 9 0 17 -3 19 -12 6z"/>
<path d="M2000 4680 c0 -5 5 -10 11 -10 5 0 7 5 4 10 -3 6 -8 10 -11 10 -2 0
-4 -4 -4 -10z"/>
<path d="M5035 4681 c-3 -5 -2 -12 3 -15 5 -3 9 1 9 9 0 17 -3 19 -12 6z"/>
<path d="M1875 4661 c3 -6 -3 -14 -12 -20 -10 -6 -13 -11 -7 -11 12 0 34 20
34 32 0 4 -5 8 -11 8 -5 0 -8 -4 -4 -9z"/>
<path d="M2158 4652 c9 -11 21 -17 25 -14 5 2 0 10 -10 18 -26 20 -36 17 -15
-4z"/>
<path d="M1775 4650 c-3 -5 -3 -15 1 -22 5 -8 2 -9 -10 -5 -11 5 -15 3 -10 -5
5 -7 2 -9 -9 -5 -11 4 -14 2 -10 -8 4 -13 8 -13 26 0 11 8 21 24 22 35 2 22
-1 25 -10 10z"/>
<path d="M1690 4641 c0 -6 4 -13 10 -16 6 -3 7 1 4 9 -7 18 -14 21 -14 7z"/>
<path d="M1807 4639 c7 -7 15 -10 18 -7 3 3 -2 9 -12 12 -14 6 -15 5 -6 -5z"/>
<path d="M5162 4638 c-7 -7 -12 -17 -12 -22 0 -6 5 -3 11 7 6 9 15 14 21 11 7
-4 8 -2 4 4 -9 15 -9 15 -24 0z"/>
<path d="M5080 4636 c0 -2 7 -7 16 -10 8 -3 12 -2 9 4 -6 10 -25 14 -25 6z"/>
<path d="M5174 4606 c1 -8 5 -18 8 -22 4 -3 5 1 4 10 -1 8 -5 18 -8 22 -4 3
-5 -1 -4 -10z"/>
<path d="M1613 4594 c0 -7 7 -10 15 -6 11 4 13 1 7 -9 -5 -8 -4 -11 0 -6 16
14 13 33 -5 33 -9 0 -17 -6 -17 -12z"/>
<path d="M1705 4599 c-4 -6 -5 -12 -2 -15 2 -3 7 2 10 11 7 17 1 20 -8 4z"/>
<path d="M1510 4586 c0 -2 7 -7 16 -10 8 -3 12 -2 9 4 -6 10 -25 14 -25 6z"/>
<path d="M1554 4569 c-3 -6 -2 -15 3 -20 5 -5 9 -1 9 11 0 23 -2 24 -12 9z"/>
<path d="M5221 4573 c-1 -17 16 -25 25 -12 4 7 3 9 -4 5 -5 -3 -13 0 -15 6 -4
9 -6 10 -6 1z"/>
<path d="M5330 4559 c0 -5 5 -7 10 -4 6 3 10 8 10 11 0 2 -4 4 -10 4 -5 0 -10
-5 -10 -11z"/>
<path d="M1474 4552 c3 -5 0 -13 -6 -15 -9 -4 -10 -6 -1 -6 17 -1 25 16 12 25
-7 4 -9 3 -5 -4z"/>
<path d="M5313 4543 c4 -3 1 -13 -6 -22 -11 -14 -10 -14 5 -2 16 12 16 31 1
31 -4 0 -3 -3 0 -7z"/>
<path d="M1375 4529 c-4 -6 -5 -12 -2 -15 2 -3 7 2 10 11 7 17 1 20 -8 4z"/>
<path d="M1226 4518 c3 -5 10 -6 15 -3 13 9 11 12 -6 12 -8 0 -12 -4 -9 -9z"/>
<path d="M1305 4520 c-3 -6 1 -7 9 -4 18 7 21 14 7 14 -6 0 -13 -4 -16 -10z"/>
<path d="M1415 4500 c3 -5 8 -10 11 -10 2 0 4 5 4 10 0 6 -5 10 -11 10 -5 0
-7 -4 -4 -10z"/>
<path d="M1190 4481 c0 -6 4 -13 10 -16 6 -3 7 1 4 9 -7 18 -14 21 -14 7z"/>
<path d="M1236 4475 c-9 -26 -7 -32 5 -12 6 10 9 21 6 23 -2 3 -7 -2 -11 -11z"/>
<path d="M5381 4476 c-8 -10 -9 -16 -1 -21 6 -4 9 -1 8 7 -2 7 3 12 10 11 6
-2 12 2 12 7 0 14 -16 12 -29 -4z"/>
<path d="M5760 4460 c-12 -7 -10 -9 7 -7 12 0 19 5 17 9 -6 10 -6 10 -24 -2z"/>
<path d="M5820 4460 c-9 -6 -10 -10 -3 -10 6 0 15 5 18 10 8 12 4 12 -15 0z"/>
<path d="M1255 4449 c-4 -6 -5 -12 -2 -15 2 -3 7 2 10 11 7 17 1 20 -8 4z"/>
<path d="M1120 4440 c-9 -6 -10 -10 -3 -10 6 0 15 5 18 10 8 12 4 12 -15 0z"/>
<path d="M1191 4433 c0 -11 3 -13 6 -5 2 6 10 9 15 6 7 -4 8 -2 4 4 -11 18
-26 14 -25 -5z"/>
<path d="M5381 4437 c2 -1 13 -9 24 -17 19 -14 19 -14 6 3 -7 9 -18 17 -24 17
-6 0 -8 -1 -6 -3z"/>
<path d="M5493 4415 c0 -8 4 -12 9 -9 5 3 6 10 3 15 -9 13 -12 11 -12 -6z"/>
<path d="M5650 4420 c0 -5 5 -10 11 -10 5 0 7 5 4 10 -3 6 -8 10 -11 10 -2 0
-4 -4 -4 -10z"/>
<path d="M5935 4423 c3 -3 -2 -14 -11 -24 -11 -12 -12 -19 -4 -24 6 -4 14 -4
17 -1 4 3 1 6 -6 6 -7 0 -9 5 -6 10 4 6 10 8 15 5 10 -6 7 22 -3 30 -4 3 -5 2
-2 -2z"/>
<path d="M5614 4409 c-3 -6 -2 -15 3 -20 5 -5 9 -1 9 11 0 23 -2 24 -12 9z"/>
<path d="M1038 4398 c-9 -5 -6 -7 9 -5 12 2 25 6 28 8 8 9 -23 6 -37 -3z"/>
<path d="M5530 4399 c0 -5 5 -7 10 -4 6 3 10 8 10 11 0 2 -4 4 -10 4 -5 0 -10
-5 -10 -11z"/>
<path d="M5854 4397 c-4 -6 -4 -9 1 -5 4 4 14 3 22 -4 7 -6 15 -9 18 -7 2 3
-4 10 -15 17 -15 9 -21 9 -26 -1z"/>
<path d="M5976 4393 c-6 -14 -5 -15 5 -6 7 7 10 15 7 18 -3 3 -9 -2 -12 -12z"/>
<path d="M5590 4381 c0 -6 4 -13 10 -16 6 -3 7 1 4 9 -7 18 -14 21 -14 7z"/>
<path d="M6050 4380 c0 -5 5 -10 11 -10 5 0 7 5 4 10 -3 6 -8 10 -11 10 -2 0
-4 -4 -4 -10z"/>
<path d="M5539 4378 c-8 -26 -5 -36 9 -31 11 5 13 3 7 -8 -5 -8 -4 -11 0 -6
16 14 14 36 -3 30 -10 -4 -13 -2 -8 5 4 7 5 12 2 12 -3 0 -6 -1 -7 -2z"/>
<path d="M5441 4361 c-8 -5 -9 -11 -3 -15 5 -3 12 1 16 9 6 17 6 18 -13 6z"/>
<path d="M5479 4354 c-7 -8 -7 -14 1 -19 6 -4 10 -3 9 2 -3 19 2 27 10 15 7
-11 9 -11 14 0 6 18 -19 19 -34 2z"/>
<path d="M5616 4353 c-6 -14 -5 -15 5 -6 7 7 10 15 7 18 -3 3 -9 -2 -12 -12z"/>
<path d="M5970 4365 c0 -7 30 -13 34 -7 3 4 -4 9 -15 9 -10 1 -19 0 -19 -2z"/>
<path d="M6016 4355 c-7 -20 18 -30 41 -16 15 9 13 10 -10 5 -22 -5 -26 -3
-21 10 3 9 4 16 1 16 -3 0 -8 -7 -11 -15z"/>
<path d="M6159 4353 c-13 -16 -12 -17 4 -4 16 13 21 21 13 21 -2 0 -10 -8 -17
-17z"/>
<path d="M913 4329 c-1 -10 3 -22 9 -25 7 -4 8 -2 4 5 -4 6 -3 18 3 25 8 9 7
13 -2 13 -7 0 -14 -8 -14 -18z"/>
<path d="M955 4339 c-4 -6 -5 -12 -2 -15 2 -3 7 2 10 11 7 17 1 20 -8 4z"/>
<path d="M6110 4342 c0 -5 7 -9 15 -9 8 0 12 4 9 9 -3 4 -9 8 -15 8 -5 0 -9
-4 -9 -8z"/>
<path d="M5620 4330 c-9 -6 -10 -10 -3 -10 6 0 15 5 18 10 8 12 4 12 -15 0z"/>
<path d="M842 4318 c-7 -7 -12 -17 -12 -22 0 -6 5 -3 11 7 6 9 15 14 21 11 7
-4 8 -2 4 4 -9 15 -9 15 -24 0z"/>
<path d="M5447 4324 c-8 -8 3 -34 15 -34 6 0 5 6 -2 15 -15 18 0 20 20 3 12
-11 12 -10 1 5 -14 18 -24 21 -34 11z"/>
<path d="M5501 4314 c0 -11 3 -14 6 -6 3 7 2 16 -1 19 -3 4 -6 -2 -5 -13z"/>
<path d="M6070 4320 c0 -5 5 -10 10 -10 6 0 10 5 10 10 0 6 -4 10 -10 10 -5 0
-10 -4 -10 -10z"/>
<path d="M6250 4299 c0 -5 5 -7 10 -4 6 3 10 8 10 11 0 2 -4 4 -10 4 -5 0 -10
-5 -10 -11z"/>
<path d="M790 4296 c0 -2 8 -10 18 -17 15 -13 16 -12 3 4 -13 16 -21 21 -21
13z"/>
<path d="M845 4280 c-16 -17 -16 -20 -3 -15 9 4 19 13 22 21 7 19 2 18 -19 -6z"/>
<path d="M6180 4289 c0 -5 -4 -7 -10 -4 -5 3 -10 2 -10 -3 0 -19 26 -20 27 -1
1 10 0 19 -3 19 -2 0 -4 -5 -4 -11z"/>
<path d="M716 4282 c-3 -5 1 -9 9 -9 8 0 12 4 9 9 -3 4 -7 8 -9 8 -2 0 -6 -4
-9 -8z"/>
<path d="M6316 4278 c3 -5 10 -6 15 -3 13 9 11 12 -6 12 -8 0 -12 -4 -9 -9z"/>
<path d="M750 4277 c0 -2 6 -10 14 -16 11 -9 16 -9 22 1 4 7 4 10 -1 6 -4 -4
-14 -3 -22 3 -7 6 -13 9 -13 6z"/>
<path d="M6274 4239 c-1 -16 2 -29 6 -29 7 0 7 46 0 54 -3 2 -6 -9 -6 -25z"/>
<path d="M635 4249 c-4 -6 -5 -12 -2 -15 2 -3 7 2 10 11 7 17 1 20 -8 4z"/>
<path d="M734 4242 c0 -10 8 -18 18 -18 16 0 16 2 1 18 -9 10 -17 18 -17 18
-1 0 -2 -8 -2 -18z"/>
<path d="M795 4250 c-3 -6 1 -7 9 -4 18 7 21 14 7 14 -6 0 -13 -4 -16 -10z"/>
<path d="M641 4216 c-9 -10 -9 -16 -1 -21 6 -4 14 -4 17 -1 4 3 1 6 -7 6 -10
0 -10 3 0 15 7 8 10 15 7 15 -2 0 -10 -6 -16 -14z"/>
<path d="M6336 4211 c-3 -5 7 -16 22 -25 l27 -17 -22 19 c-12 11 -19 22 -16
26 4 3 4 6 0 6 -3 0 -8 -4 -11 -9z"/>
<path d="M5472 4188 c-7 -7 -12 -9 -12 -5 0 4 -9 3 -20 -3 -11 -6 -18 -15 -15
-21 4 -5 1 -9 -6 -9 -7 0 -9 -3 -6 -6 4 -4 13 -2 20 4 8 7 16 10 18 8 2 -2 12
7 22 20 19 26 19 32 -1 12z"/>
<path d="M6400 4180 c-12 -7 -10 -9 7 -7 12 0 19 5 17 9 -6 10 -6 10 -24 -2z"/>
<path d="M349 4163 c-13 -16 -12 -17 4 -4 16 13 21 21 13 21 -2 0 -10 -8 -17
-17z"/>
<path d="M513 4165 c0 -8 4 -12 9 -9 5 3 6 10 3 15 -9 13 -12 11 -12 -6z"/>
<path d="M586 4161 c5 -17 3 -21 -6 -16 -9 5 -11 4 -6 -3 10 -16 14 -15 27 9
6 13 7 19 1 15 -6 -3 -13 0 -16 6 -3 7 -3 2 0 -11z"/>
<path d="M415 4140 c3 -5 8 -10 11 -10 2 0 4 5 4 10 0 6 -5 10 -11 10 -5 0 -7
-4 -4 -10z"/>
<path d="M466 4142 c-2 -4 4 -8 14 -8 10 0 16 4 14 8 -3 4 -9 8 -14 8 -5 0
-11 -4 -14 -8z"/>
<path d="M497 4118 c-7 -5 0 -6 17 -4 16 3 31 7 33 10 8 8 -37 2 -50 -6z"/>
<path d="M400 4100 c-9 -6 -10 -10 -3 -10 6 0 15 5 18 10 8 12 4 12 -15 0z"/>
<path d="M435 4090 c3 -5 8 -10 11 -10 2 0 4 5 4 10 0 6 -5 10 -11 10 -5 0 -7
-4 -4 -10z"/>
<path d="M389 4063 c-13 -16 -12 -17 4 -4 9 7 17 15 17 17 0 8 -8 3 -21 -13z"/>
<path d="M354 4056 c1 -8 5 -18 8 -22 4 -3 5 1 4 10 -1 8 -5 18 -8 22 -4 3 -5
-1 -4 -10z"/>
<path d="M226 4042 c-3 -5 1 -9 9 -9 8 0 12 4 9 9 -3 4 -7 8 -9 8 -2 0 -6 -4
-9 -8z"/>
<path d="M326 4018 c3 -5 10 -6 15 -3 13 9 11 12 -6 12 -8 0 -12 -4 -9 -9z"/>
<path d="M6467 4019 c7 -7 15 -10 18 -7 3 3 -2 9 -12 12 -14 6 -15 5 -6 -5z"/>
<path d="M6533 3891 c0 -11 5 -18 9 -15 4 3 5 11 1 19 -7 21 -12 19 -10 -4z"/>
<path d="M6472 3854 c-7 -8 -8 -14 -3 -14 10 0 25 19 20 25 -2 1 -10 -3 -17
-11z"/>
<path d="M6513 3849 c-2 -23 3 -25 10 -4 4 8 3 16 -1 19 -4 3 -9 -4 -9 -15z"/>
<path d="M236 3822 c-3 -5 1 -9 9 -9 8 0 12 4 9 9 -3 4 -7 8 -9 8 -2 0 -6 -4
-9 -8z"/>
<path d="M6476 3798 c3 -5 10 -6 15 -3 13 9 11 12 -6 12 -8 0 -12 -4 -9 -9z"/>
<path d="M6466 3777 c3 -10 9 -15 12 -12 3 3 0 11 -7 18 -10 9 -11 8 -5 -6z"/>
<path d="M6496 3773 c-6 -14 -5 -15 5 -6 7 7 10 15 7 18 -3 3 -9 -2 -12 -12z"/>
<path d="M6530 3780 c0 -5 5 -10 11 -10 5 0 7 5 4 10 -3 6 -8 10 -11 10 -2 0
-4 -4 -4 -10z"/>
<path d="M321 3717 c-13 -21 -12 -21 5 -5 10 10 16 20 13 22 -3 3 -11 -5 -18
-17z"/>
<path d="M6486 3718 c3 -5 10 -6 15 -3 13 9 11 12 -6 12 -8 0 -12 -4 -9 -9z"/>
<path d="M6491 3684 c0 -11 3 -14 6 -6 3 7 2 16 -1 19 -3 4 -6 -2 -5 -13z"/>
<path d="M314 3661 c1 -17 5 -33 8 -36 3 -3 4 8 3 25 -1 17 -5 33 -8 36 -3 3
-5 -8 -3 -25z"/>
<path d="M6515 3680 c-3 -5 -1 -10 4 -10 6 0 11 5 11 10 0 6 -2 10 -4 10 -3 0
-8 -4 -11 -10z"/>
<path d="M375 3659 c-5 -8 -4 -10 3 -5 8 5 12 -1 13 -16 1 -18 2 -19 6 -4 6
23 -12 43 -22 25z"/>
<path d="M6516 3633 c-6 -14 -5 -15 5 -6 7 7 10 15 7 18 -3 3 -9 -2 -12 -12z"/>
<path d="M410 3620 c0 -5 5 -10 11 -10 5 0 7 5 4 10 -3 6 -8 10 -11 10 -2 0
-4 -4 -4 -10z"/>
<path d="M346 3598 c3 -5 10 -6 15 -3 13 9 11 12 -6 12 -8 0 -12 -4 -9 -9z"/>
<path d="M6460 3606 c0 -2 7 -7 16 -10 8 -3 12 -2 9 4 -6 10 -25 14 -25 6z"/>
<path d="M6526 3578 c3 -5 10 -6 15 -3 13 9 11 12 -6 12 -8 0 -12 -4 -9 -9z"/>
<path d="M6490 3560 c0 -5 5 -10 10 -10 6 0 10 5 10 10 0 6 -4 10 -10 10 -5 0
-10 -4 -10 -10z"/>
<path d="M430 3534 c6 -6 8 -13 5 -16 -3 -2 2 -5 10 -5 12 0 12 3 2 16 -10 12
-9 14 6 8 10 -4 16 -3 12 2 -3 6 -14 9 -25 8 -13 -1 -16 -5 -10 -13z"/>
<path d="M469 3503 c-13 -16 -12 -17 4 -4 9 7 17 15 17 17 0 8 -8 3 -21 -13z"/>
<path d="M429 3483 c-13 -16 -12 -17 4 -4 9 7 17 15 17 17 0 8 -8 3 -21 -13z"/>
<path d="M495 3480 c3 -5 8 -10 11 -10 2 0 4 5 4 10 0 6 -5 10 -11 10 -5 0 -7
-4 -4 -10z"/>
<path d="M456 3458 c3 -4 11 -5 19 -1 21 7 19 12 -4 10 -11 0 -18 -5 -15 -9z"/>
<path d="M6470 3460 c0 -5 5 -10 10 -10 6 0 10 5 10 10 0 6 -4 10 -10 10 -5 0
-10 -4 -10 -10z"/>
<path d="M6505 3460 c-3 -6 1 -7 9 -4 18 7 21 14 7 14 -6 0 -13 -4 -16 -10z"/>
<path d="M486 3445 c-18 -14 -18 -14 1 -12 11 0 20 7 20 14 0 7 -1 13 -1 13
-1 0 -9 -7 -20 -15z"/>
<path d="M6470 3421 c0 -6 4 -12 8 -15 5 -3 9 1 9 9 0 8 -4 15 -9 15 -4 0 -8
-4 -8 -9z"/>
<path d="M476 3393 c-6 -14 -5 -15 5 -6 7 7 10 15 7 18 -3 3 -9 -2 -12 -12z"/>
<path d="M513 3393 c0 -9 4 -10 13 -2 7 6 19 7 25 3 7 -4 9 -3 5 4 -9 15 -43
11 -43 -5z"/>
<path d="M566 3359 c3 -5 9 -7 14 -4 5 3 13 -3 19 -12 6 -10 11 -13 11 -6 0
13 -17 26 -38 29 -6 1 -10 -2 -6 -7z"/>
<path d="M6464 3349 c0 -9 5 -15 11 -12 7 2 12 10 12 17 0 7 -5 13 -12 13 -6
0 -11 -8 -11 -18z"/>
<path d="M535 3340 c3 -5 8 -10 11 -10 2 0 4 5 4 10 0 6 -5 10 -11 10 -5 0 -7
-4 -4 -10z"/>
<path d="M620 3331 c0 -6 4 -13 10 -16 6 -3 7 1 4 9 -7 18 -14 21 -14 7z"/>
<path d="M614 3303 c3 -6 -1 -13 -9 -15 -13 -2 -13 -5 3 -14 16 -10 18 -9 17
7 -1 10 -5 22 -10 26 -4 5 -5 3 -1 -4z"/>
<path d="M651 3273 c-1 -17 16 -25 25 -12 4 7 3 9 -4 5 -5 -3 -13 0 -15 6 -4
9 -6 10 -6 1z"/>
<path d="M630 3240 c0 -5 5 -10 10 -10 6 0 10 5 10 10 0 6 -4 10 -10 10 -5 0
-10 -4 -10 -10z"/>
<path d="M596 3222 c-3 -5 1 -9 9 -9 8 0 12 4 9 9 -3 4 -7 8 -9 8 -2 0 -6 -4
-9 -8z"/>
<path d="M656 3222 c-2 -4 7 -18 21 -30 18 -16 23 -18 19 -6 -3 8 -6 18 -6 20
0 2 -7 4 -16 4 -8 0 -12 5 -9 10 3 6 4 10 1 10 -3 0 -7 -3 -10 -8z"/>
<path d="M730 3201 c0 -6 4 -13 10 -16 6 -3 7 1 4 9 -7 18 -14 21 -14 7z"/>
<path d="M659 3188 c-7 -23 -3 -45 8 -41 16 6 17 23 2 23 -5 0 -7 5 -4 10 3 6
4 10 1 10 -3 0 -6 -1 -7 -2z"/>
<path d="M6341 3156 c-9 -11 -9 -16 1 -22 7 -4 10 -4 6 1 -4 4 0 14 10 21 9 7
12 14 6 14 -6 0 -17 -6 -23 -14z"/>
<path d="M6326 3117 c3 -10 9 -15 12 -12 3 3 0 11 -7 18 -10 9 -11 8 -5 -6z"/>
<path d="M6393 3115 c0 -8 4 -12 9 -9 5 3 6 10 3 15 -9 13 -12 11 -12 -6z"/>
<path d="M636 3087 c3 -10 9 -15 12 -12 3 3 0 11 -7 18 -10 9 -11 8 -5 -6z"/>
<path d="M6314 3078 c-4 -7 -4 -10 1 -6 4 4 15 2 24 -5 14 -11 14 -10 2 6 -16
20 -18 21 -27 5z"/>
<path d="M6306 3038 c3 -5 10 -6 15 -3 13 9 11 12 -6 12 -8 0 -12 -4 -9 -9z"/>
<path d="M6277 3013 c-10 -10 -8 -23 4 -23 5 0 8 4 5 9 -4 5 0 12 6 14 7 3 8
6 2 6 -6 1 -14 -2 -17 -6z"/>
<path d="M592 2990 c-12 -19 -11 -20 8 -8 11 7 20 16 20 20 0 15 -15 8 -28
-12z"/>
<path d="M6248 2983 c6 -2 9 -10 6 -15 -4 -7 -2 -8 5 -4 13 9 5 26 -12 25 -9
0 -8 -2 1 -6z"/>
<path d="M6333 2975 c0 -8 4 -12 9 -9 5 3 6 10 3 15 -9 13 -12 11 -12 -6z"/>
<path d="M6299 2978 c-5 -18 -6 -38 -1 -34 7 8 12 36 6 36 -2 0 -4 -1 -5 -2z"/>
<path d="M6230 2951 c0 -5 7 -12 16 -15 14 -5 15 -4 4 9 -14 17 -20 19 -20 6z"/>
<path d="M555 2930 c-16 -17 -16 -20 -3 -15 9 4 19 13 22 21 7 19 2 18 -19 -6z"/>
<path d="M510 2921 c0 -6 4 -12 8 -15 5 -3 9 1 9 9 0 8 -4 15 -9 15 -4 0 -8
-4 -8 -9z"/>
<path d="M6220 2920 c8 -5 20 -10 25 -10 6 0 3 5 -5 10 -8 5 -19 10 -25 10 -5
0 -3 -5 5 -10z"/>
<path d="M475 2889 c-4 -6 -5 -12 -2 -15 2 -3 7 2 10 11 7 17 1 20 -8 4z"/>
<path d="M6237 2869 c7 -7 15 -10 18 -7 3 3 -2 9 -12 12 -14 6 -15 5 -6 -5z"/>
<path d="M6276 2847 c3 -10 9 -15 12 -12 3 3 0 11 -7 18 -10 9 -11 8 -5 -6z"/>
<path d="M6214 2839 c-3 -6 -2 -15 4 -21 6 -6 12 -6 17 3 6 8 4 10 -5 4 -10
-6 -12 -4 -7 8 7 19 2 23 -9 6z"/>
<path d="M540 2831 c0 -4 -11 -7 -25 -6 -14 2 -23 0 -20 -4 7 -12 48 -6 53 7
2 7 1 12 -2 12 -3 0 -6 -4 -6 -9z"/>
<path d="M6180 2816 c0 -2 7 -9 15 -16 9 -7 15 -8 15 -2 0 5 -7 12 -15 16 -8
3 -15 4 -15 2z"/>
<path d="M515 2781 c-3 -5 -2 -12 3 -15 5 -3 9 1 9 9 0 17 -3 19 -12 6z"/>
<path d="M6198 2773 c7 -3 16 -2 19 1 4 3 -2 6 -13 5 -11 0 -14 -3 -6 -6z"/>
<path d="M6234 2763 c4 -8 2 -13 -6 -13 -9 0 -9 -3 2 -10 14 -9 7 -14 -13 -11
-5 1 -6 -3 -2 -9 5 -8 11 -8 20 0 14 12 14 35 0 47 -4 4 -5 2 -1 -4z"/>
<path d="M453 2725 c0 -8 4 -12 9 -9 5 3 6 10 3 15 -9 13 -12 11 -12 -6z"/>
<path d="M510 2719 c0 -5 5 -7 10 -4 6 3 10 8 10 11 0 2 -4 4 -10 4 -5 0 -10
-5 -10 -11z"/>
<path d="M6220 2680 c0 -5 5 -10 11 -10 5 0 7 5 4 10 -3 6 -8 10 -11 10 -2 0
-4 -4 -4 -10z"/>
<path d="M6227 2633 c5 -12 3 -14 -8 -8 -8 5 -11 4 -6 0 4 -5 13 -10 21 -11
16 -2 17 24 0 30 -9 3 -11 -1 -7 -11z"/>
<path d="M456 2627 c3 -10 9 -15 12 -12 3 3 0 11 -7 18 -10 9 -11 8 -5 -6z"/>
<path d="M6286 2538 c3 -5 10 -6 15 -3 13 9 11 12 -6 12 -8 0 -12 -4 -9 -9z"/>
<path d="M6245 2520 c-10 -11 -16 -22 -14 -24 2 -2 12 7 22 20 22 29 17 32 -8
4z"/>
<path d="M515 2491 c-3 -5 -2 -12 3 -15 5 -3 9 1 9 9 0 17 -3 19 -12 6z"/>
<path d="M6250 2496 c0 -2 8 -10 18 -17 15 -13 16 -12 3 4 -13 16 -21 21 -21
13z"/>
<path d="M6253 2439 c-2 -23 3 -25 10 -4 4 8 3 16 -1 19 -4 3 -9 -4 -9 -15z"/>
<path d="M510 2416 c0 -2 8 -10 18 -17 15 -13 16 -12 3 4 -13 16 -21 21 -21
13z"/>
<path d="M556 2382 c-3 -5 1 -9 9 -9 8 0 12 4 9 9 -3 4 -7 8 -9 8 -2 0 -6 -4
-9 -8z"/>
<path d="M610 2360 c0 -5 5 -10 11 -10 5 0 7 5 4 10 -3 6 -8 10 -11 10 -2 0
-4 -4 -4 -10z"/>
<path d="M575 2340 c3 -5 8 -10 11 -10 2 0 4 5 4 10 0 6 -5 10 -11 10 -5 0 -7
-4 -4 -10z"/>
<path d="M636 2318 c3 -5 10 -6 15 -3 13 9 11 12 -6 12 -8 0 -12 -4 -9 -9z"/>
<path d="M667 2306 c-4 -10 -1 -13 8 -9 8 3 12 9 9 14 -7 12 -11 11 -17 -5z"/>
<path d="M616 2302 c-3 -4 4 -9 15 -9 23 -2 25 3 4 10 -8 4 -16 3 -19 -1z"/>
<path d="M6175 2240 c-3 -5 -1 -10 4 -10 6 0 11 5 11 10 0 6 -2 10 -4 10 -3 0
-8 -4 -11 -10z"/>
<path d="M6150 2231 c0 -7 -5 -9 -12 -5 -7 5 -8 3 -3 -5 5 -9 10 -10 18 -2 6
6 8 14 4 18 -4 3 -7 1 -7 -6z"/>
<path d="M720 2220 c-9 -6 -10 -10 -3 -10 6 0 15 5 18 10 8 12 4 12 -15 0z"/>
<path d="M713 2175 c0 -8 4 -12 9 -9 5 3 6 10 3 15 -9 13 -12 11 -12 -6z"/>
<path d="M830 2181 c0 -10 29 -36 34 -30 1 2 -6 12 -16 22 -10 9 -18 13 -18 8z"/>
<path d="M6081 2176 c-15 -18 5 -34 22 -17 9 9 7 10 -8 5 -18 -7 -18 -6 -6 9
7 9 11 17 8 17 -2 0 -10 -6 -16 -14z"/>
<path d="M2935 2166 c-13 -9 -15 -15 -6 -20 6 -4 14 0 17 9 6 13 8 14 15 3 6
-9 9 -9 9 -1 0 19 -16 23 -35 9z"/>
<path d="M6135 2160 c2 -27 10 -33 12 -10 1 11 -2 22 -6 24 -4 3 -7 -4 -6 -14z"/>
<path d="M745 2160 c-3 -6 1 -7 9 -4 18 7 21 14 7 14 -6 0 -13 -4 -16 -10z"/>
<path d="M786 2162 c-3 -5 1 -9 9 -9 8 0 15 4 15 9 0 4 -4 8 -9 8 -6 0 -12 -4
-15 -8z"/>
<path d="M3662 2129 c9 -5 16 -15 14 -22 -1 -6 -1 -9 1 -4 3 4 9 5 14 1 14 -8
11 3 -7 20 -8 9 -21 16 -27 16 -7 0 -4 -5 5 -11z"/>
<path d="M3783 2133 c-20 -7 -15 -19 12 -31 15 -7 25 -8 25 -2 0 6 -7 10 -16
10 -10 0 -14 6 -10 15 3 8 4 15 3 14 -1 0 -8 -3 -14 -6z"/>
<path d="M3709 2124 c6 -3 7 -12 4 -20 -6 -16 22 -20 32 -4 3 6 -1 7 -10 4
-10 -4 -15 -2 -13 6 2 7 -3 14 -10 16 -7 1 -8 0 -3 -2z"/>
<path d="M5395 2108 c-11 -12 -14 -18 -7 -14 7 4 21 2 30 -5 14 -11 15 -11 5
0 -6 7 -9 20 -6 27 7 19 2 17 -22 -8z"/>
<path d="M6045 2119 c-4 -6 -5 -12 -2 -15 2 -3 7 2 10 11 7 17 1 20 -8 4z"/>
<path d="M6093 2105 c0 -8 4 -12 9 -9 5 3 6 10 3 15 -9 13 -12 11 -12 -6z"/>
<path d="M5995 2100 c-3 -5 -1 -10 4 -10 6 0 11 5 11 10 0 6 -2 10 -4 10 -3 0
-8 -4 -11 -10z"/>
<path d="M915 2090 c3 -5 8 -10 11 -10 2 0 4 5 4 10 0 6 -5 10 -11 10 -5 0 -7
-4 -4 -10z"/>
<path d="M3379 2098 c-1 -2 -2 -14 -4 -28 -1 -14 -4 -31 -6 -39 -2 -7 3 -16
11 -18 12 -4 12 -3 2 5 -11 7 -10 10 3 16 12 4 14 10 7 19 -5 6 -8 20 -7 30 3
14 -2 25 -6 15z"/>
<path d="M3757 2093 c-4 -6 0 -13 8 -17 8 -3 17 0 21 6 4 6 3 8 -4 4 -5 -3
-12 -1 -14 6 -3 8 -6 9 -11 1z"/>
<path d="M3680 2075 c-7 -9 -11 -17 -9 -20 3 -2 10 5 17 15 14 24 10 26 -8 5z"/>
<path d="M6016 2082 c-3 -5 1 -9 9 -9 8 0 12 4 9 9 -3 4 -7 8 -9 8 -2 0 -6 -4
-9 -8z"/>
<path d="M935 2070 c-3 -6 1 -7 9 -4 18 7 21 14 7 14 -6 0 -13 -4 -16 -10z"/>
<path d="M3718 2051 c5 -14 3 -14 -11 -2 -9 7 -17 11 -17 8 0 -2 6 -10 14 -16
12 -10 17 -8 25 7 7 14 7 19 -4 19 -8 0 -11 -7 -7 -16z"/>
<path d="M958 2053 c7 -3 16 -2 19 1 4 3 -2 6 -13 5 -11 0 -14 -3 -6 -6z"/>
<path d="M6016 2047 c3 -10 9 -15 12 -12 3 3 0 11 -7 18 -10 9 -11 8 -5 -6z"/>
<path d="M910 2039 c0 -5 5 -7 10 -4 6 3 10 8 10 11 0 2 -4 4 -10 4 -5 0 -10
-5 -10 -11z"/>
<path d="M2854 2033 c2 -10 6 -17 10 -15 4 2 16 -7 27 -20 19 -21 19 -20 -1 9
-26 39 -39 49 -36 26z"/>
<path d="M2980 2040 c-9 -6 -10 -10 -3 -10 6 0 15 5 18 10 8 12 4 12 -15 0z"/>
<path d="M3813 2029 c-2 -23 3 -25 10 -4 4 8 3 16 -1 19 -4 3 -9 -4 -9 -15z"/>
<path d="M1564 2011 c3 -5 -2 -12 -11 -15 -14 -6 -13 -10 8 -33 19 -21 20 -25
6 -20 -11 4 -16 3 -12 -3 3 -6 2 -10 -3 -10 -6 0 -12 -7 -16 -15 -4 -11 3 -9
24 7 23 17 27 24 18 35 -8 10 -6 13 10 10 11 -2 28 -9 39 -17 10 -8 0 5 -22
28 -37 40 -53 52 -41 33z m25 -24 c10 -13 -2 -15 -39 -8 -4 1 21 20 26 21 1 0
7 -6 13 -13z"/>
<path d="M2910 2009 c0 -5 5 -7 10 -4 6 3 10 8 10 11 0 2 -4 4 -10 4 -5 0 -10
-5 -10 -11z"/>
<path d="M2941 1998 c-13 -21 -13 -22 2 -10 9 8 21 11 26 7 7 -3 8 0 5 9 -8
22 -17 20 -33 -6z"/>
<path d="M3863 1998 c1 -15 6 -23 11 -18 4 4 4 16 -2 26 -9 16 -10 14 -9 -8z"/>
<path d="M940 2006 c0 -2 8 -10 18 -17 15 -13 16 -12 3 4 -13 16 -21 21 -21
13z"/>
<path d="M995 2001 c-3 -5 -2 -12 3 -15 5 -3 9 1 9 9 0 17 -3 19 -12 6z"/>
<path d="M5905 2000 c-3 -6 1 -7 9 -4 18 7 21 14 7 14 -6 0 -13 -4 -16 -10z"/>
<path d="M5300 1992 c0 -6 -8 -9 -17 -6 -15 5 -16 4 -3 -5 16 -11 40 3 27 16
-4 3 -7 1 -7 -5z"/>
<path d="M2833 1973 c0 -9 4 -10 14 -2 7 6 13 12 13 14 0 1 -6 2 -13 2 -8 0
-14 -6 -14 -14z"/>
<path d="M3716 1978 c3 -4 11 -5 19 -1 21 7 19 12 -4 10 -11 0 -18 -5 -15 -9z"/>
<path d="M3776 1978 c3 -5 10 -6 15 -3 13 9 11 12 -6 12 -8 0 -12 -4 -9 -9z"/>
<path d="M5350 1980 c0 -5 5 -10 10 -10 6 0 10 5 10 10 0 6 -4 10 -10 10 -5 0
-10 -4 -10 -10z"/>
<path d="M2770 1970 c-8 -5 -12 -12 -9 -15 4 -3 12 1 19 10 14 17 11 19 -10 5z"/>
<path d="M986 1961 c-3 -5 2 -8 12 -7 9 0 16 -5 14 -12 -1 -8 2 -11 8 -7 8 5
7 11 -1 21 -13 16 -25 18 -33 5z"/>
<path d="M2876 1958 c3 -5 10 -6 15 -3 13 9 11 12 -6 12 -8 0 -12 -4 -9 -9z"/>
<path d="M5250 1962 c0 -5 7 -9 15 -9 8 0 12 4 9 9 -3 4 -9 8 -15 8 -5 0 -9
-4 -9 -8z"/>
<path d="M2265 1949 c-4 -6 -5 -12 -2 -15 2 -3 7 2 10 11 7 17 1 20 -8 4z"/>
<path d="M3835 1949 c-4 -6 -5 -12 -2 -15 2 -3 7 2 10 11 7 17 1 20 -8 4z"/>
<path d="M5856 1947 c3 -10 9 -15 12 -12 3 3 0 11 -7 18 -10 9 -11 8 -5 -6z"/>
<path d="M1068 1938 c5 -5 16 -8 23 -6 8 3 3 7 -10 11 -17 4 -21 3 -13 -5z"/>
<path d="M2925 1940 c-3 -6 1 -7 9 -4 18 7 21 14 7 14 -6 0 -13 -4 -16 -10z"/>
<path d="M4987 1929 c4 -13 8 -18 11 -10 2 7 -1 18 -6 23 -8 8 -9 4 -5 -13z"/>
<path d="M5215 1941 c-3 -6 0 -8 8 -5 11 4 14 -2 12 -20 -2 -15 0 -24 4 -21
11 6 6 48 -6 52 -6 2 -14 -1 -18 -6z"/>
<path d="M5833 1938 c1 -7 -3 -12 -9 -11 -6 1 -11 -5 -11 -13 0 -12 4 -11 18
2 10 9 16 21 13 25 -8 13 -14 11 -11 -3z"/>
<path d="M5936 1938 c3 -5 10 -6 15 -3 13 9 11 12 -6 12 -8 0 -12 -4 -9 -9z"/>
<path d="M2233 1925 c-10 -11 -9 -13 6 -12 11 1 17 7 14 14 -6 16 -5 16 -20
-2z"/>
<path d="M2280 1935 c0 -5 5 -17 10 -25 5 -8 10 -10 10 -5 0 6 -5 17 -10 25
-5 8 -10 11 -10 5z"/>
<path d="M3181 1924 c0 -11 3 -14 6 -6 3 7 2 16 -1 19 -3 4 -6 -2 -5 -13z"/>
<path d="M3213 1927 c0 -8 6 -14 14 -14 9 0 10 4 2 14 -6 7 -12 13 -14 13 -1
0 -2 -6 -2 -13z"/>
<path d="M3302 1924 c10 -10 20 -16 22 -13 3 3 -5 11 -17 18 -21 13 -21 12 -5
-5z"/>
<path d="M3406 1925 c-11 -8 -15 -15 -9 -15 6 0 16 7 23 15 16 19 11 19 -14 0z"/>
<path d="M1594 1906 c1 -14 4 -28 7 -31 3 -3 5 6 5 19 -1 14 -4 28 -7 31 -3 3
-5 -6 -5 -19z"/>
<path d="M2199 1928 c-6 -21 -5 -38 1 -38 5 0 8 9 7 20 -1 17 -5 26 -8 18z"/>
<path d="M3356 1913 c-6 -14 -5 -15 5 -6 7 7 10 15 7 18 -3 3 -9 -2 -12 -12z"/>
<path d="M4050 1919 c0 -5 4 -8 9 -5 5 3 14 -1 21 -9 7 -8 17 -15 23 -15 5 0
-2 9 -16 20 -28 23 -37 25 -37 9z"/>
<path d="M4437 1915 c-4 -8 -3 -16 1 -19 4 -3 9 4 9 15 2 23 -3 25 -10 4z"/>
<path d="M4495 1921 c-3 -5 -2 -12 3 -15 5 -3 9 1 9 9 0 17 -3 19 -12 6z"/>
<path d="M4537 1923 c-3 -5 8 -8 23 -8 15 0 26 3 23 8 -2 4 -13 7 -23 7 -10 0
-21 -3 -23 -7z"/>
<path d="M4620 1926 c0 -2 7 -7 16 -10 8 -3 12 -2 9 4 -6 10 -25 14 -25 6z"/>
<path d="M4744 1910 c0 -13 4 -16 10 -10 7 7 7 13 0 20 -6 6 -10 3 -10 -10z"/>
<path d="M5286 1918 c3 -5 10 -6 15 -3 13 9 11 12 -6 12 -8 0 -12 -4 -9 -9z"/>
<path d="M5416 1918 c3 -5 10 -6 15 -3 13 9 11 12 -6 12 -8 0 -12 -4 -9 -9z"/>
<path d="M4136 1912 c-2 -4 4 -8 14 -8 10 0 16 4 14 8 -3 4 -9 8 -14 8 -5 0
-11 -4 -14 -8z"/>
<path d="M4336 1912 c-2 -4 4 -8 14 -8 10 0 16 4 14 8 -3 4 -9 8 -14 8 -5 0
-11 -4 -14 -8z"/>
<path d="M4875 1909 c-4 -6 -5 -12 -2 -15 2 -3 7 2 10 11 7 17 1 20 -8 4z"/>
<path d="M1107 1899 c7 -7 15 -10 18 -7 3 3 -2 9 -12 12 -14 6 -15 5 -6 -5z"/>
<path d="M1560 1895 c-7 -9 -11 -17 -9 -20 3 -2 10 5 17 15 14 24 10 26 -8 5z"/>
<path d="M1936 1897 c3 -10 9 -15 12 -12 3 3 0 11 -7 18 -10 9 -11 8 -5 -6z"/>
<path d="M2015 1900 c-3 -5 -1 -10 4 -10 6 0 11 5 11 10 0 6 -2 10 -4 10 -3 0
-8 -4 -11 -10z"/>
<path d="M2319 1893 c-12 -16 -12 -17 2 -6 9 7 20 9 24 5 5 -4 5 -1 1 6 -9 16
-11 15 -27 -5z"/>
<path d="M2494 1886 c1 -14 4 -28 7 -31 3 -3 5 6 5 19 -1 14 -4 28 -7 31 -3 3
-5 -6 -5 -19z"/>
<path d="M4380 1906 c0 -2 8 -10 18 -17 15 -13 16 -12 3 4 -13 16 -21 21 -21
13z"/>
<path d="M4550 1906 c0 -2 7 -7 16 -10 8 -3 12 -2 9 4 -6 10 -25 14 -25 6z"/>
<path d="M4899 1908 c0 -2 -2 -13 -3 -25 -2 -16 1 -20 9 -13 7 5 14 8 17 5 2
-3 5 1 5 9 0 8 -6 12 -15 8 -10 -3 -13 -1 -8 6 4 7 5 12 2 12 -3 0 -6 -1 -7
-2z"/>
<path d="M4975 1900 c6 -10 4 -12 -11 -6 -15 6 -17 5 -6 -5 9 -9 15 -10 23 -2
8 8 7 13 -2 18 -8 6 -10 4 -4 -5z"/>
<path d="M5186 1898 c3 -4 9 -8 15 -8 5 0 9 4 9 8 0 5 -7 9 -15 9 -8 0 -12 -4
-9 -9z"/>
<path d="M5316 1898 c3 -4 11 -5 19 -1 21 7 19 12 -4 10 -11 0 -18 -5 -15 -9z"/>
<path d="M5370 1905 c0 -7 30 -13 34 -7 3 4 -4 9 -15 9 -10 1 -19 0 -19 -2z"/>
<path d="M1514 1880 c0 -13 4 -16 10 -10 7 7 7 13 0 20 -6 6 -10 3 -10 -10z"/>
<path d="M2471 1884 c0 -11 3 -14 6 -6 3 7 2 16 -1 19 -3 4 -6 -2 -5 -13z"/>
<path d="M2543 1882 c10 -10 14 -22 10 -27 -5 -4 -2 -5 5 -1 11 6 10 12 -4 27
-9 10 -19 19 -22 19 -3 0 2 -8 11 -18z"/>
<path d="M2635 1891 c-3 -5 -2 -12 3 -15 5 -3 9 1 9 9 0 17 -3 19 -12 6z"/>
<path d="M4053 1885 c0 -8 4 -12 9 -9 5 3 6 10 3 15 -9 13 -12 11 -12 -6z"/>
<path d="M4515 1889 c-4 -6 -5 -12 -2 -15 2 -3 7 2 10 11 7 17 1 20 -8 4z"/>
<path d="M5557 1893 c-10 -9 -9 -23 1 -23 5 0 9 7 9 15 0 17 -1 18 -10 8z"/>
<path d="M1174 1878 c-4 -7 -4 -10 1 -6 4 4 14 3 22 -4 11 -8 12 -7 7 6 -7 19
-20 21 -30 4z"/>
<path d="M1910 1881 c0 -5 8 -15 18 -22 15 -12 16 -12 5 2 -7 9 -10 19 -6 22
3 4 1 7 -5 7 -7 0 -12 -4 -12 -9z"/>
<path d="M1959 1873 c-12 -16 -12 -17 2 -6 9 7 20 9 24 5 5 -4 5 -1 1 6 -9 16
-11 15 -27 -5z"/>
<path d="M2026 1877 c-16 -12 -16 -13 2 -13 10 0 19 6 19 13 0 7 -1 13 -2 13
-1 0 -9 -6 -19 -13z"/>
<path d="M2150 1881 c0 -6 4 -13 10 -16 6 -3 7 1 4 9 -7 18 -14 21 -14 7z"/>
<path d="M4996 1873 c-6 -14 -5 -15 5 -6 7 7 10 15 7 18 -3 3 -9 -2 -12 -12z"/>
<path d="M5513 1873 c0 -9 4 -10 14 -2 7 6 13 12 13 14 0 1 -6 2 -13 2 -8 0
-14 -6 -14 -14z"/>
<path d="M2375 1871 c-3 -5 -2 -12 3 -15 5 -3 9 1 9 9 0 17 -3 19 -12 6z"/>
<path d="M4455 1871 c-3 -5 -2 -12 3 -15 5 -3 9 1 9 9 0 17 -3 19 -12 6z"/>
<path d="M1310 1860 c0 -5 5 -10 11 -10 5 0 7 5 4 10 -3 6 -8 10 -11 10 -2 0
-4 -4 -4 -10z"/>
<path d="M1455 1860 c3 -5 8 -10 11 -10 2 0 4 5 4 10 0 6 -5 10 -11 10 -5 0
-7 -4 -4 -10z"/>
<path d="M1826 1858 c3 -5 10 -6 15 -3 13 9 11 12 -6 12 -8 0 -12 -4 -9 -9z"/>
<path d="M2290 1859 c0 -5 5 -7 10 -4 6 3 10 8 10 11 0 2 -4 4 -10 4 -5 0 -10
-5 -10 -11z"/>
<path d="M3275 1861 c-3 -5 -2 -12 3 -15 5 -3 9 1 9 9 0 17 -3 19 -12 6z"/>
<path d="M4110 1865 c0 -7 30 -13 34 -7 3 4 -4 9 -15 9 -10 1 -19 0 -19 -2z"/>
<path d="M4370 1859 c0 -5 5 -7 10 -4 6 3 10 8 10 11 0 2 -4 4 -10 4 -5 0 -10
-5 -10 -11z"/>
<path d="M5676 1858 c3 -5 10 -6 15 -3 13 9 11 12 -6 12 -8 0 -12 -4 -9 -9z"/>
<path d="M1893 1845 c0 -8 4 -12 9 -9 5 3 6 10 3 15 -9 13 -12 11 -12 -6z"/>
<path d="M1265 1840 c-3 -6 1 -7 9 -4 18 7 21 14 7 14 -6 0 -13 -4 -16 -10z"/>
<path d="M1835 1831 c-3 -5 -2 -12 3 -15 5 -3 9 1 9 9 0 17 -3 19 -12 6z"/>
<path d="M1965 1820 c-3 -6 1 -7 9 -4 18 7 21 14 7 14 -6 0 -13 -4 -16 -10z"/>
<path d="M1880 1806 c0 -2 8 -10 18 -17 15 -13 16 -12 3 4 -13 16 -21 21 -21
13z"/>
<path d="M4906 1802 c-3 -5 1 -9 9 -9 8 0 12 4 9 9 -3 4 -7 8 -9 8 -2 0 -6 -4
-9 -8z"/>
<path d="M1513 1775 c0 -8 4 -12 9 -9 5 3 6 10 3 15 -9 13 -12 11 -12 -6z"/>
</g>
</svg>
